<?xml version="1.0" encoding="UTF-8"?>
<svg id="SVGDoc" width="21" height="32" xmlns="http://www.w3.org/2000/svg" version="1.1" xmlns:xlink="http://www.w3.org/1999/xlink" xmlns:avocode="https://avocode.com/" viewBox="0 0 21 32"><defs><mask id="Mask1076" x="-1.0526315789473684" y="-1.0357142857142858" width="2.1052631578947367" height="2.0714285714285716"><rect width="21" height="30" x="0" y="-1" fill="#ffffff"></rect><path d="M9.09265,1.04908l-7.537,9.56539c-0.97328,0.94352 -0.28397,2.55695 1.0923,2.55695h4.72015v0v13.19553c0,0.82716 0.69176,1.49779 1.5448,1.49779h2.54417c0.8532,0 1.54495,-0.67063 1.54495,-1.49779v-13.19553v0h4.72015c1.37627,0 2.06558,-1.61342 1.0923,-2.55695l-7.537,-9.56539c-0.60333,-0.58491 -1.5815,-0.58491 -2.18483,0z" fill="#000000"></path></mask><filter id="Filter1080" width="41.2" height="53" x="-10" y="-11" filterUnits="userSpaceOnUse"><feOffset dx="0.2" dy="3" result="FeOffset1081Out" in="SourceGraphic"></feOffset><feGaussianBlur stdDeviation="0 0" result="FeGaussianBlur1082Out" in="FeOffset1081Out"></feGaussianBlur></filter></defs><desc>Generated with Avocode.</desc><g><g><title>Forme 3</title><g filter="url(#Filter1080)"><path d="M9.09265,1.04908l-7.537,9.56539c-0.97328,0.94352 -0.28397,2.55695 1.0923,2.55695h4.72015v0v13.19553c0,0.82716 0.69176,1.49779 1.5448,1.49779h2.54417c0.8532,0 1.54495,-0.67063 1.54495,-1.49779v-13.19553v0h4.72015c1.37627,0 2.06558,-1.61342 1.0923,-2.55695l-7.537,-9.56539c-0.60333,-0.58491 -1.5815,-0.58491 -2.18483,0z" fill="none" stroke="#000000" stroke-opacity="0.33" stroke-width="2" mask="url(&quot;#Mask1076&quot;)"></path><path d="M9.09265,1.04908l-7.537,9.56539c-0.97328,0.94352 -0.28397,2.55695 1.0923,2.55695h4.72015v0v13.19553c0,0.82716 0.69176,1.49779 1.5448,1.49779h2.54417c0.8532,0 1.54495,-0.67063 1.54495,-1.49779v-13.19553v0h4.72015c1.37627,0 2.06558,-1.61342 1.0923,-2.55695l-7.537,-9.56539c-0.60333,-0.58491 -1.5815,-0.58491 -2.18483,0z" fill="#000000" fill-opacity="0.33"></path></g><path d="M9.09265,1.04908l-7.537,9.56539c-0.97328,0.94352 -0.28397,2.55695 1.0923,2.55695h4.72015v0v13.19553c0,0.82716 0.69176,1.49779 1.5448,1.49779h2.54417c0.8532,0 1.54495,-0.67063 1.54495,-1.49779v-13.19553v0h4.72015c1.37627,0 2.06558,-1.61342 1.0923,-2.55695l-7.537,-9.56539c-0.60333,-0.58491 -1.5815,-0.58491 -2.18483,0z" fill="#ffffff" fill-opacity="1"></path></g></g></svg>