<?xml version="1.0" encoding="UTF-8"?>
<svg id="SVGDoc" width="21" height="32" xmlns="http://www.w3.org/2000/svg" version="1.1" xmlns:xlink="http://www.w3.org/1999/xlink" xmlns:avocode="https://avocode.com/" viewBox="0 0 21 32"><defs><mask id="Mask1056" x="-1.0526315789473684" y="-1.0357142857142858" width="2.1052631578947367" height="2.0714285714285716"><rect width="21" height="30" x="0" y="-1" fill="#ffffff"></rect><path d="M11.91209,27.4257l7.54776,-9.56539c0.97466,-0.94357 0.28442,-2.55695 -1.09398,-2.55695h-4.72687v0v-13.19553c0,-0.82716 -0.69267,-1.49779 -1.54701,-1.49779h-2.54768c-0.85449,0 -1.54716,0.67063 -1.54716,1.49779v13.19553v0h-4.72687c-1.37825,0 -2.06848,1.61338 -1.09383,2.55695l7.54776,9.56539c0.6041,0.58491 1.58363,0.58491 2.18788,0z" fill="#000000"></path></mask><filter id="Filter1060" width="41.2" height="53" x="-10" y="-11" filterUnits="userSpaceOnUse"><feOffset dx="0.2" dy="3" result="FeOffset1061Out" in="SourceGraphic"></feOffset><feGaussianBlur stdDeviation="0 0" result="FeGaussianBlur1062Out" in="FeOffset1061Out"></feGaussianBlur></filter></defs><desc>Generated with Avocode.</desc><g><g><title>Forme 3 copie</title><g filter="url(#Filter1060)"><path d="M11.91209,27.4257l7.54776,-9.56539c0.97466,-0.94357 0.28442,-2.55695 -1.09398,-2.55695h-4.72687v0v-13.19553c0,-0.82716 -0.69267,-1.49779 -1.54701,-1.49779h-2.54768c-0.85449,0 -1.54716,0.67063 -1.54716,1.49779v13.19553v0h-4.72687c-1.37825,0 -2.06848,1.61338 -1.09383,2.55695l7.54776,9.56539c0.6041,0.58491 1.58363,0.58491 2.18788,0z" fill="none" stroke="#000000" stroke-opacity="0.33" stroke-width="2" mask="url(&quot;#Mask1056&quot;)"></path><path d="M11.91209,27.4257l7.54776,-9.56539c0.97466,-0.94357 0.28442,-2.55695 -1.09398,-2.55695h-4.72687v0v-13.19553c0,-0.82716 -0.69267,-1.49779 -1.54701,-1.49779h-2.54768c-0.85449,0 -1.54716,0.67063 -1.54716,1.49779v13.19553v0h-4.72687c-1.37825,0 -2.06848,1.61338 -1.09383,2.55695l7.54776,9.56539c0.6041,0.58491 1.58363,0.58491 2.18788,0z" fill="#000000" fill-opacity="0.33"></path></g><path d="M11.91209,27.4257l7.54776,-9.56539c0.97466,-0.94357 0.28442,-2.55695 -1.09398,-2.55695h-4.72687v0v-13.19553c0,-0.82716 -0.69267,-1.49779 -1.54701,-1.49779h-2.54768c-0.85449,0 -1.54716,0.67063 -1.54716,1.49779v13.19553v0h-4.72687c-1.37825,0 -2.06848,1.61338 -1.09383,2.55695l7.54776,9.56539c0.6041,0.58491 1.58363,0.58491 2.18788,0z" fill="#ffffff" fill-opacity="1"></path></g></g></svg>