<?xml version="1.0" encoding="UTF-8"?>
<svg id="SVGDoc" width="30" height="36" xmlns="http://www.w3.org/2000/svg" version="1.1" xmlns:xlink="http://www.w3.org/1999/xlink" xmlns:avocode="https://avocode.com/" viewBox="0 0 30 36"><defs><mask id="Mask1027" x="-1.0357142857142858" y="-1.03125" width="2.0714285714285716" height="2.0625"><rect width="30" height="34" x="0" y="-1" fill="#ffffff"></rect><path d="M2.9222,7.9784h23.36121v19.61509c0,2.16266 -1.74614,3.92305 -3.89359,3.92305h-15.57404c-2.14729,0 -3.89359,-1.76039 -3.89359,-3.92305zM28.23019,2.09392v3.92293h-27.25464v-3.92293h9.73373v-1.96155h7.78717v1.96155z" fill="#000000"></path></mask><filter id="Filter1031" width="50.2" height="57" x="-10" y="-11" filterUnits="userSpaceOnUse"><feOffset dx="0.2" dy="3" result="FeOffset1032Out" in="SourceGraphic"></feOffset><feGaussianBlur stdDeviation="0 0" result="FeGaussianBlur1033Out" in="FeOffset1032Out"></feGaussianBlur></filter></defs><desc>Generated with Avocode.</desc><g><g><title>Forme 4</title><g filter="url(#Filter1031)"><path d="M2.9222,7.9784h23.36121v19.61509c0,2.16266 -1.74614,3.92305 -3.89359,3.92305h-15.57404c-2.14729,0 -3.89359,-1.76039 -3.89359,-3.92305zM28.23019,2.09392v3.92293h-27.25464v-3.92293h9.73373v-1.96155h7.78717v1.96155z" fill="none" stroke="#8c0606" stroke-opacity="0.61" stroke-width="2" mask="url(&quot;#Mask1027&quot;)"></path><path d="M2.9222,7.9784h23.36121v19.61509c0,2.16266 -1.74614,3.92305 -3.89359,3.92305h-15.57404c-2.14729,0 -3.89359,-1.76039 -3.89359,-3.92305zM28.23019,2.09392v3.92293h-27.25464v-3.92293h9.73373v-1.96155h7.78717v1.96155z" fill="#8c0606" fill-opacity="0.61"></path></g><path d="M2.9222,7.9784h23.36121v19.61509c0,2.16266 -1.74614,3.92305 -3.89359,3.92305h-15.57404c-2.14729,0 -3.89359,-1.76039 -3.89359,-3.92305zM28.23019,2.09392v3.92293h-27.25464v-3.92293h9.73373v-1.96155h7.78717v1.96155z" fill="#ebeef3" fill-opacity="1"></path></g></g></svg>