<?xml version="1.0" encoding="UTF-8"?>
<svg id="SVGDoc" width="20" height="21" xmlns="http://www.w3.org/2000/svg" version="1.1" xmlns:xlink="http://www.w3.org/1999/xlink" xmlns:avocode="https://avocode.com/" viewBox="0 0 20 21"><defs></defs><desc>Generated with Avocode.</desc><g><g><title>Forme 8</title><path d="M19.99719,13.38533v6.20528c0,0.77937 -0.62241,1.40898 -1.39046,1.40898h-17.21764c-0.77072,0 -1.39046,-0.62961 -1.39046,-1.40898v-6.20528h2.77489v4.79536h14.44618v-4.79536zM5.77005,8.02849c0,0 -0.60608,-0.57878 0.05081,-0.57878h2.23969v-7.10471c0,0 -0.09148,-0.345 0.42404,-0.345h3.15155c0.37079,0 0.36385,0.29073 0.36385,0.29073v7.01185h2.06718c0.79483,0 0.19569,0.60594 0.19569,0.60594c0,0 -3.38089,4.5634 -3.8559,5.0424c-0.33966,0.34508 -0.66292,-0.04118 -0.66292,-0.04118z" fill="#ffffff" fill-opacity="1"></path></g></g></svg>