<?xml version="1.0" encoding="UTF-8"?>
<svg id="SVGDoc" width="37" height="30" xmlns="http://www.w3.org/2000/svg" version="1.1" xmlns:xlink="http://www.w3.org/1999/xlink" xmlns:avocode="https://avocode.com/" viewBox="0 0 37 30"><defs></defs><desc>Generated with Avocode.</desc><g><g><title>Forme 6</title><path d="M36.25238,0.95061c0.93437,2.36191 0.99495,4.63802 0.17113,6.40944c-0.56419,1.21387 -1.52573,2.08192 -2.64214,2.38692c-0.01411,0.02845 -0.02869,0.0565 -0.04333,0.08236c-0.76904,1.34928 -1.5332,2.60453 -2.4044,3.95021c0.02129,0.62215 -0.02884,1.22145 -0.149,1.78094c-0.47874,2.23951 -2.28966,4.188 -4.6167,4.97119c-0.90622,1.17459 -1.77376,2.23351 -2.57835,3.14903c-2.99873,3.41078 -4.0538,3.60675 -4.40056,3.67115c-0.38521,0.0715 -0.75493,0 -1.04645,-0.20229c-0.9185,-0.63687 -0.54153,-1.9874 -0.39978,-2.49554c0.22949,-0.82444 0.66917,-1.90257 1.30615,-3.20427c0.30075,-0.61433 0.64445,-1.27714 1.02333,-1.97119c-0.32326,-0.10323 -0.64735,-0.15503 -0.96443,-0.15503c-1.11458,0 -1.88461,0.65729 -2.05971,1.75881c-0.0766,0.48058 -0.02853,0.95735 0.02213,1.46261c0.0489,0.49059 0.09941,0.99662 0.02541,1.50358c-0.12581,0.85825 -0.4245,1.71208 -0.88737,2.53741c-1.21742,2.16955 -3.25127,3.41402 -5.57961,3.41402c-0.93727,0 -1.89293,-0.19982 -2.84065,-0.59382c-3.84384,-1.59717 -6.68694,-5.32125 -7.80029,-10.21673c-0.084,-0.36985 -0.15556,-0.74598 -0.21286,-1.11821c-0.68413,-4.45251 0.65041,-9.01745 3.66249,-12.52425c3.0275,-3.52536 7.35985,-5.54701 11.88637,-5.54701c0.17937,0 0.36087,0.00332 0.5394,0.00961c4.05357,0.14166 7.99713,1.91056 10.81879,4.85243c0.60303,0.62888 1.17485,1.33303 1.70013,2.09485l0.03052,-0.03932c-0.28687,-1.1658 0.28854,-2.39604 1.54648,-3.2983c0.88959,-0.63812 1.71272,-0.93104 2.50854,-1.21439c0.98717,-0.351 1.83899,-0.65438 2.4884,-1.56365c0.10933,-0.15337 0.29404,-0.23443 0.48065,-0.21186c0.18692,0.02302 0.34676,0.14624 0.41573,0.32133zM23.6725,9.33789c0.31174,-0.49476 0.41199,-1.08145 0.28229,-1.65185c-0.12962,-0.57039 -0.47386,-1.05596 -0.96893,-1.3674c-0.35049,-0.22057 -0.75325,-0.33722 -1.16554,-0.33722c-0.75874,0 -1.45264,0.38237 -1.85654,1.02309c-0.31204,0.49505 -0.41199,1.08182 -0.28236,1.65177c0.12962,0.57044 0.47394,1.05604 0.96939,1.36772c0.35004,0.22025 0.75325,0.33689 1.16524,0.33689c0.75859,0 1.45256,-0.38241 1.85646,-1.02301zM26.51659,13.30479c-2.01096,2.95979 -3.79845,5.91795 -5.0322,8.32915c-0.69008,1.34851 -1.18607,2.48687 -1.44539,3.3163c0.67207,-0.54287 1.54457,-1.41908 2.54112,-2.55371c1.78459,-2.03171 3.87451,-4.78004 5.88402,-7.73861c1.22292,-1.80027 2.23343,-3.39072 3.17276,-4.99583c-0.38689,-0.13327 -0.76538,-0.32713 -1.12762,-0.57834c-0.2182,-0.15126 -0.41985,-0.31039 -0.60059,-0.473c-1.11244,1.44214 -2.28432,3.06302 -3.39211,4.69404zM7.06606,13.29057c0.75867,0 1.45287,-0.38237 1.85646,-1.02293c0.64362,-1.02134 0.33577,-2.37565 -0.68665,-3.01921c-0.35019,-0.22061 -0.75325,-0.33718 -1.1657,-0.33718c-0.75874,0 -1.45248,0.38274 -1.85608,1.02288c-0.31204,0.49517 -0.41245,1.08198 -0.28282,1.65197c0.1297,0.57039 0.47394,1.05596 0.96916,1.36772c0.35049,0.22053 0.75356,0.33673 1.16562,0.33673zM4.76915,18.11211c-0.31166,0.49476 -0.41199,1.08145 -0.28282,1.65144c0.1297,0.57039 0.47394,1.05592 0.96916,1.36768c0.35034,0.22069 0.75356,0.33681 1.16554,0.33681c0.75874,0 1.45294,-0.38241 1.85608,-1.02301c0.31242,-0.49476 0.41283,-1.08137 0.28305,-1.65136c-0.13,-0.57039 -0.47417,-1.056 -0.96939,-1.36768c-0.35049,-0.22073 -0.75325,-0.33734 -1.16508,-0.33734c-0.7592,0 -1.45294,0.38282 -1.85654,1.02345zM11.78705,5.10854c-0.31204,0.49476 -0.41252,1.08141 -0.28275,1.65181c0.12962,0.57039 0.47379,1.056 0.96901,1.3674c0.35042,0.22053 0.75325,0.33718 1.16562,0.33718c0.75859,0 1.45241,-0.38278 1.85638,-1.02345c0.64331,-1.02118 0.33539,-2.37598 -0.68718,-3.01913c-0.34988,-0.22065 -0.75325,-0.33689 -1.16508,-0.33689c-0.75859,0 -1.45256,0.38249 -1.856,1.02309z" fill="#22252c" fill-opacity="1"></path></g></g></svg>