<?xml version="1.0" encoding="UTF-8"?>
<svg id="SVGDoc" width="23" height="23" xmlns="http://www.w3.org/2000/svg" version="1.1" xmlns:xlink="http://www.w3.org/1999/xlink" xmlns:avocode="https://avocode.com/" viewBox="0 0 23 23"><defs></defs><desc>Generated with Avocode.</desc><g><g><title>Forme 7</title><path d="M18.77394,14.61701c-1.34613,0 -2.52594,0.6331 -3.29926,1.60491l-7.18163,-3.63889c0.09369,-0.34662 0.15961,-0.705 0.15961,-1.08303c0,-0.41338 -0.07652,-0.80179 -0.1899,-1.17459l7.14462,-3.6232c0.77332,1.01762 1.98486,1.67686 3.36655,1.67686c2.33978,0 4.22684,-1.87043 4.22684,-4.18561c0,-2.31384 -1.88705,-4.18954 -4.22684,-4.18954c-2.33063,0 -4.22302,1.8757 -4.22302,4.18954c0,0.37803 0.06729,0.73641 0.16106,1.08303l-7.17636,3.63889c-0.77347,-0.97056 -1.95847,-1.60491 -3.3046,-1.60491c-2.33444,0 -4.22684,1.8757 -4.22684,4.18954c0,2.31514 1.8924,4.18954 4.22684,4.18954c1.38168,0 2.59323,-0.66836 3.36647,-1.68597l7.14485,3.62312c-0.1136,0.37799 -0.19539,0.76648 -0.19539,1.17986c0,2.31514 1.89636,4.18954 4.22699,4.18954c2.33444,0 4.22684,-1.8744 4.22684,-4.18954c0,-2.31388 -1.8924,-4.18954 -4.22684,-4.18954z" fill="#ffffff" fill-opacity="1"></path></g></g></svg>